<svg width="64" height="64" viewBox="0 0 64 64" fill="none" xmlns="http://www.w3.org/2000/svg">

<rect width="64" height="64" rx="12" fill="white"/>

<g id="Cloud">
<path id="Cloud_Base" d="M49.6667 25.6667C52.8303 25.6667 55.3333 28.1697 55.3333 31.3333C55.3333 32.5459 54.908 33.6483 54.208 34.4925C56.0401 35.7226 57.1667 37.7107 57.1667 39.9167C57.1667 43.9564 53.9031 47.1667 50 47.1667H20.5C14.7366 47.1667 10 42.4299 10 36.6667C10 31.5794 14.1201 27.4208 19.3334 27.1999L19.3334 27.1999C19.6457 27.1999 19.9542 27.2036 20.2599 27.2106C21.3934 22.8466 25.5034 19.3333 30 19.3333C35.797 19.3333 40.5758 23.6344 41.1643 29.1557C42.2982 27.4208 44.2541 26.2917 46.4999 26.2917C48.2916 26.2917 49.825 27.4917 50.5583 29.25L50.5583 29.25C51.3667 27.4208 52.5833 25.6667 54.5833 25.6667L49.6667 25.6667Z" fill="#2C3E50"/>
</g>
<g id="Arrows">
<path id="Arrow_Up" d="M32 23L32 41M32 23L27 28M32 23L37 28" stroke="#00C8FF" stroke-width="4" stroke-linecap="round" stroke-linejoin="round"/>
<path id="Arrow_Down" d="M32 41L32 23M32 41L27 36M32 41L37 36" stroke="#00C8FF" stroke-width="4" stroke-linecap="round" stroke-linejoin="round"/>
</g>
</svg>